<?xml version="1.0" standalone="no"?>
<!DOCTYPE svg PUBLIC "-//W3C//DTD SVG 20010904//EN"
 "http://www.w3.org/TR/2001/REC-SVG-20010904/DTD/svg10.dtd">
<svg version="1.0" xmlns="http://www.w3.org/2000/svg"
 width="16.000000pt" height="16.000000pt" viewBox="0 0 16.000000 16.000000"
 preserveAspectRatio="xMidYMid meet">
<metadata>
Created by potrace 1.11, written by Peter Selinger 2001-2013
</metadata>
<g transform="translate(0.000000,16.000000) scale(0.002286,-0.002286)"
fill="#000000" stroke="none">
<path d="M2325 5423 c-227 -23 -425 -156 -535 -358 -36 -66 -72 -191 -74 -257
-2 -47 -3 -48 -98 -127 -108 -90 -142 -122 -214 -206 -148 -172 -239 -365
-269 -570 -7 -45 -7 -206 -1 -245 3 -14 7 -41 10 -62 3 -20 16 -69 30 -110
113 -345 400 -639 841 -861 123 -62 197 -92 360 -148 l140 -47 6 -203 c4 -157
9 -214 23 -249 79 -208 337 -377 663 -435 160 -27 385 -31 530 -9 381 60 651
249 704 492 5 28 11 128 12 222 l2 172 155 52 c604 201 1029 538 1192 947 120
299 85 624 -98 911 -82 128 -193 246 -346 368 -63 50 -73 63 -74 92 -4 101
-41 224 -96 314 -61 102 -192 216 -298 262 -152 65 -335 73 -488 20 -86 -29
-210 -108 -253 -161 -14 -17 -24 -19 -70 -13 -30 4 -72 10 -94 12 -22 3 -53 7
-70 9 -72 11 -253 19 -410 19 -206 1 -368 -9 -500 -30 -123 -19 -133 -18 -169
18 -40 40 -124 96 -186 125 -86 39 -235 65 -325 56z"/>
</g>
</svg>
